<?xml version="1.0" encoding="utf-8"?>
<!-- Generator: Adobe Illustrator 27.3.1, SVG Export Plug-In . SVG Version: 6.00 Build 0)  -->
<svg version="1.1" id="Layer_1" xmlns="http://www.w3.org/2000/svg" xmlns:xlink="http://www.w3.org/1999/xlink" x="0px" y="0px"
	 viewBox="0 0 985 703" style="enable-background:new 0 0 985 703;" xml:space="preserve">
<style type="text/css">
	.st0{fill:#81A2EF;}
	.st1{fill:#F0EACF;}
	.st2{fill:#FFFFFF;}
	.st3{fill:#EEF0F1;}
	.st4{fill:#A6A9AB;}
	.st5{fill:#EBEEFF;}
	.st6{fill:#3770FF;}
	.st7{fill:#BACDF7;}
	.st8{fill-rule:evenodd;clip-rule:evenodd;fill:#3936AB;}
	.st9{fill:#C4C4C4;filter:url(#Adobe_OpacityMaskFilter);}
	.st10{mask:url(#mask0_00000180368414205862137290000013860644923366025658_);}
	.st11{fill:#FFD74A;}
	.st12{fill:#3936AB;}
</style>
<path class="st0" d="M840.6,40.6c29.7,20.5,31.3,66.6,10.9,96.1c-20.4,29.5-58.7,37.3-88.6,16.7c-29.9-20.6-42.9-63.8-22.5-93.3
	C760.7,30.5,810.9,20.1,840.6,40.6z"/>
<rect x="0.5" y="276.3" class="st1" width="660" height="425"/>
<g>
	<path class="st2" d="M150.5,89h800c5.5,0,10,4.5,10,10v520c0,5.5-4.5,10-10,10h-800c-5.5,0-10-4.5-10-10V99
		C140.5,93.5,145,89,150.5,89z"/>
</g>
<path class="st3" d="M140.5,99c0-5.5,4.5-10,10-10h800c5.5,0,10,4.5,10,10v36h-820V99z"/>
<circle class="st4" cx="173" cy="112.5" r="5.5"/>
<circle class="st4" cx="193" cy="112.5" r="5.5"/>
<circle class="st4" cx="213" cy="112.5" r="5.5"/>
<path class="st5" d="M198.5,240h702c4.4,0,8,3.6,8,8v373c0,4.4-3.6,8-8,8h-702c-4.4,0-8-3.6-8-8V248
	C190.5,243.6,194.1,240,198.5,240z"/>
<path class="st6" d="M203.5,186h115c5.5,0,10,4.5,10,10l0,0c0,5.5-4.5,10-10,10h-115c-5.5,0-10-4.5-10-10l0,0
	C193.5,190.5,198,186,203.5,186z"/>
<path class="st7" d="M228.5,272h182c3.3,0,6,2.7,6,6v227c0,3.3-2.7,6-6,6h-182c-3.3,0-6-2.7-6-6V278
	C222.5,274.7,225.2,272,228.5,272z"/>
<path class="st7" d="M458.5,272h182c3.3,0,6,2.7,6,6v227c0,3.3-2.7,6-6,6h-182c-3.3,0-6-2.7-6-6V278
	C452.5,274.7,455.2,272,458.5,272z"/>
<path class="st7" d="M688.5,272h182c3.3,0,6,2.7,6,6v227c0,3.3-2.7,6-6,6h-182c-3.3,0-6-2.7-6-6V278
	C682.5,274.7,685.2,272,688.5,272z"/>
<path class="st7" d="M222.5,541c0-3.3,2.7-6,6-6h182c3.3,0,6,2.7,6,6v88h-194V541z"/>
<path class="st7" d="M452.5,541c0-3.3,2.7-6,6-6h182c3.3,0,6,2.7,6,6v88h-194V541z"/>
<path class="st7" d="M682.5,541c0-3.3,2.7-6,6-6h182c3.3,0,6,2.7,6,6v88h-194V541z"/>
<path class="st6" d="M250.5,455h138c2.2,0,4,1.8,4,4v24c0,2.2-1.8,4-4,4h-138c-2.2,0-4-1.8-4-4v-24C246.5,456.8,248.3,455,250.5,455
	z"/>
<path class="st6" d="M480.5,455h138c2.2,0,4,1.8,4,4v24c0,2.2-1.8,4-4,4h-138c-2.2,0-4-1.8-4-4v-24C476.5,456.8,478.3,455,480.5,455
	z"/>
<path class="st6" d="M710.5,455h138c2.2,0,4,1.8,4,4v24c0,2.2-1.8,4-4,4h-138c-2.2,0-4-1.8-4-4v-24C706.5,456.8,708.3,455,710.5,455
	z"/>
<g>
	<path class="st8" d="M141.5,354c-4.4,0-8,3.6-8,8v52c0,4.4,3.6,8,8,8h163.3l12.4,12.4l12.4-12.4h163c4.4,0,8-3.6,8-8v-52
		c0-4.4-3.6-8-8-8H141.5z"/>
</g>
<defs>
	<filter id="Adobe_OpacityMaskFilter" filterUnits="userSpaceOnUse" x="465.5" y="346" width="43" height="41.9">
		<feColorMatrix  type="matrix" values="1 0 0 0 0  0 1 0 0 0  0 0 1 0 0  0 0 0 1 0"/>
	</filter>
</defs>
<mask maskUnits="userSpaceOnUse" x="465.5" y="346" width="43" height="41.9" id="mask0_00000180368414205862137290000013860644923366025658_">
	<path class="st9" d="M141.5,354c-4.4,0-8,3.6-8,8v52c0,4.4,3.6,8,8,8h163.3l12.4,12.4l12.4-12.4h163c4.4,0,8-3.6,8-8v-52
		c0-4.4-3.6-8-8-8H141.5z"/>
</mask>
<g class="st10">
	<path class="st11" d="M508.5,368.2c0,11.2-11.6,19.7-22.9,19.7c-11.3,0-20.1-8.4-20.1-19.7c0-11.3,8.8-22.2,20.1-22.2
		C496.9,346,508.5,357,508.5,368.2z"/>
</g>
<path class="st2" d="M166.3,393h-4.8l-0.7,3h-2.8l3.3-14h5l3.3,14H167L166.3,393z M162.1,390.5h3.6l-1.6-7.2h-0.4L162.1,390.5z
	 M173.6,400h-2.5v-13.9h2.5v1.4h0.4c0.3-0.5,0.7-1,1.2-1.3c0.5-0.3,1.2-0.5,1.9-0.5c0.6,0,1.1,0.1,1.7,0.3c0.5,0.2,1,0.6,1.4,1
	c0.4,0.4,0.7,1,0.9,1.6c0.2,0.6,0.4,1.3,0.4,2.1v0.4c0,0.8-0.1,1.5-0.3,2.2c-0.2,0.6-0.5,1.2-0.9,1.6c-0.4,0.4-0.8,0.8-1.4,1
	c-0.5,0.2-1.1,0.3-1.7,0.3c-0.5,0-0.8,0-1.2-0.1c-0.3-0.1-0.6-0.2-0.9-0.4c-0.2-0.2-0.4-0.3-0.6-0.5c-0.2-0.2-0.3-0.4-0.4-0.7h-0.4
	V400z M176.2,393.9c0.8,0,1.4-0.2,1.9-0.7c0.5-0.5,0.7-1.2,0.7-2v-0.2c0-0.8-0.2-1.5-0.7-2c-0.5-0.5-1.1-0.7-1.9-0.7
	c-0.8,0-1.4,0.3-1.9,0.8c-0.5,0.5-0.7,1.1-0.7,2v0.2c0,0.8,0.2,1.5,0.7,2C174.8,393.6,175.5,393.9,176.2,393.9z M185.9,400h-2.5
	v-13.9h2.5v1.4h0.4c0.3-0.5,0.7-1,1.2-1.3c0.5-0.3,1.2-0.5,1.9-0.5c0.6,0,1.1,0.1,1.7,0.3c0.5,0.2,1,0.6,1.4,1
	c0.4,0.4,0.7,1,0.9,1.6c0.2,0.6,0.4,1.3,0.4,2.1v0.4c0,0.8-0.1,1.5-0.3,2.2c-0.2,0.6-0.5,1.2-0.9,1.6c-0.4,0.4-0.8,0.8-1.4,1
	c-0.5,0.2-1.1,0.3-1.7,0.3c-0.5,0-0.8,0-1.2-0.1c-0.3-0.1-0.6-0.2-0.9-0.4c-0.2-0.2-0.4-0.3-0.6-0.5c-0.2-0.2-0.3-0.4-0.4-0.7h-0.4
	V400z M188.5,393.9c0.8,0,1.4-0.2,1.9-0.7c0.5-0.5,0.7-1.2,0.7-2v-0.2c0-0.8-0.2-1.5-0.7-2c-0.5-0.5-1.1-0.7-1.9-0.7
	s-1.4,0.3-1.9,0.8c-0.5,0.5-0.7,1.1-0.7,2v0.2c0,0.8,0.2,1.5,0.7,2C187.1,393.6,187.7,393.9,188.5,393.9z M196,393.6h3.5v-9.2h-3.4
	V382h5.9v11.6h3.2v2.4H196V393.6z M215.1,386.1h2.5v12.4c0,0.5-0.1,0.8-0.4,1.1c-0.3,0.3-0.6,0.4-1.1,0.4h-5.9v-2.4h4.4
	c0.4,0,0.5-0.2,0.5-0.6v-2.4h-0.4c-0.4,1.1-1.4,1.7-2.8,1.7c-0.5,0-1-0.1-1.4-0.2s-0.8-0.4-1.1-0.7c-0.3-0.3-0.6-0.7-0.8-1.2
	c-0.2-0.5-0.3-1.1-0.3-1.8v-6.2h2.5v5.7c0,0.7,0.2,1.3,0.5,1.7c0.3,0.4,0.8,0.6,1.5,0.6c0.8,0,1.3-0.2,1.7-0.7
	c0.4-0.5,0.5-1.2,0.5-2V386.1z M242.6,396h-4.4l-0.6-7.5v-1.2h-0.5v1.2l-0.6,7.5h-4.4l-0.7-9.9h2.3l0.4,7.5v1.2h0.5v-1.2l0.5-7.5
	h4.2l0.5,7.5v1.2h0.5v-1.2l0.4-7.5h2.3L242.6,396z M245.3,393.6h3.4v-5.1h-3.1v-2.4h5.6v7.5h2.9v2.4h-8.8V393.6z M251.8,383.1
	c0,0.3-0.1,0.5-0.2,0.8c-0.1,0.2-0.2,0.4-0.4,0.6c-0.2,0.2-0.4,0.3-0.6,0.4c-0.2,0.1-0.5,0.1-0.7,0.1c-0.3,0-0.5,0-0.7-0.1
	c-0.2-0.1-0.4-0.2-0.6-0.4c-0.2-0.2-0.3-0.4-0.4-0.6c-0.1-0.2-0.1-0.5-0.1-0.8s0-0.5,0.1-0.7c0.1-0.2,0.2-0.4,0.4-0.6
	c0.2-0.2,0.4-0.3,0.6-0.4c0.2-0.1,0.5-0.2,0.7-0.2c0.3,0,0.5,0.1,0.7,0.2c0.2,0.1,0.4,0.2,0.6,0.4c0.2,0.2,0.3,0.4,0.4,0.6
	C251.7,382.6,251.8,382.9,251.8,383.1z M257,386.1h2.9V382h2.5v4.1h3.6v2.4h-3.6v4.5c0,0.4,0.2,0.6,0.5,0.6h2.7v2.4h-4.2
	c-0.5,0-0.8-0.1-1.1-0.4c-0.3-0.3-0.4-0.7-0.4-1.1v-6H257V386.1z M272.1,396h-2.5v-14h2.5v5.7h0.4c0.3-0.6,0.6-1.1,1.1-1.4
	c0.5-0.3,1.1-0.5,1.8-0.5c0.5,0,0.9,0.1,1.4,0.2c0.4,0.2,0.8,0.4,1.1,0.7c0.3,0.3,0.5,0.7,0.7,1.2c0.2,0.5,0.3,1.1,0.3,1.8v6.2h-2.5
	v-5.6c0-0.7-0.2-1.3-0.5-1.7c-0.3-0.4-0.8-0.6-1.5-0.6c-0.7,0-1.3,0.3-1.7,0.8c-0.4,0.5-0.5,1.2-0.5,2V396z M300.5,394.6
	c-0.3,0.6-0.6,1.1-1.1,1.3c-0.5,0.3-1,0.4-1.7,0.4c-0.6,0-1.2-0.1-1.7-0.3c-0.5-0.2-1-0.6-1.4-1s-0.7-1-1-1.6
	c-0.2-0.6-0.3-1.3-0.3-2.1v-0.3c0-0.8,0.1-1.5,0.3-2.1c0.2-0.6,0.5-1.2,0.9-1.6c0.4-0.4,0.8-0.8,1.3-1c0.5-0.2,1.1-0.4,1.7-0.4
	c0.7,0,1.3,0.1,1.7,0.4c0.4,0.2,0.8,0.6,1,1.1h0.4v-1.2h2.5v6.9c0,0.4,0.2,0.6,0.5,0.6h0.4v2.4h-1.7c-0.5,0-0.8-0.1-1.1-0.4
	c-0.3-0.3-0.4-0.6-0.4-1H300.5z M298.2,393.9c0.7,0,1.3-0.2,1.8-0.7c0.4-0.5,0.7-1.2,0.7-2v-0.2c0-0.8-0.2-1.5-0.7-2
	c-0.4-0.5-1-0.7-1.8-0.7c-0.7,0-1.3,0.2-1.8,0.7c-0.4,0.5-0.7,1.1-0.7,2v0.2c0,0.8,0.2,1.5,0.7,2
	C296.9,393.6,297.5,393.9,298.2,393.9z M321.7,388.9c0,0.3,0.2,0.6,0.5,0.7c0.3,0.1,0.9,0.2,1.8,0.3c1,0.1,1.8,0.4,2.5,0.9
	c0.6,0.5,1,1.2,1,2.1v0.1c0,1-0.4,1.8-1.1,2.4c-0.7,0.6-1.7,0.9-3,0.9c-0.8,0-1.4-0.1-2-0.3c-0.5-0.2-1-0.4-1.4-0.7
	c-0.4-0.3-0.6-0.6-0.8-1c-0.2-0.4-0.3-0.7-0.4-1.1l2.3-0.8c0.1,0.4,0.3,0.8,0.7,1.1c0.3,0.3,0.9,0.5,1.6,0.5c0.6,0,1.1-0.1,1.3-0.3
	c0.2-0.2,0.4-0.4,0.4-0.6c0-0.1,0-0.3-0.1-0.4c-0.1-0.1-0.2-0.2-0.3-0.3c-0.2-0.1-0.4-0.2-0.7-0.3c-0.3-0.1-0.6-0.1-1-0.2
	c-1.1-0.1-2-0.4-2.7-0.9c-0.7-0.5-1-1.2-1-2.2v-0.1c0-0.5,0.1-0.9,0.3-1.3c0.2-0.4,0.5-0.7,0.8-0.9c0.3-0.3,0.7-0.5,1.2-0.6
	c0.5-0.1,0.9-0.2,1.4-0.2c0.6,0,1.2,0.1,1.6,0.2c0.5,0.1,0.9,0.3,1.2,0.6c0.3,0.2,0.6,0.5,0.8,0.8c0.2,0.3,0.4,0.6,0.5,0.9l-2.3,0.9
	c-0.1-0.4-0.3-0.6-0.6-0.8c-0.3-0.2-0.7-0.3-1.1-0.3c-0.4,0-0.7,0.1-1,0.2C321.8,388.5,321.7,388.7,321.7,388.9z M331,393.6h3.4
	v-5.1h-3.1v-2.4h5.6v7.5h2.9v2.4H331V393.6z M337.5,383.1c0,0.3-0.1,0.5-0.2,0.8c-0.1,0.2-0.2,0.4-0.4,0.6c-0.2,0.2-0.4,0.3-0.6,0.4
	c-0.2,0.1-0.5,0.1-0.7,0.1c-0.3,0-0.5,0-0.7-0.1c-0.2-0.1-0.4-0.2-0.6-0.4c-0.2-0.2-0.3-0.4-0.4-0.6c-0.1-0.2-0.1-0.5-0.1-0.8
	s0-0.5,0.1-0.7c0.1-0.2,0.2-0.4,0.4-0.6c0.2-0.2,0.4-0.3,0.6-0.4c0.2-0.1,0.5-0.2,0.7-0.2c0.3,0,0.5,0.1,0.7,0.2
	c0.2,0.1,0.4,0.2,0.6,0.4c0.2,0.2,0.3,0.4,0.4,0.6C337.4,382.6,337.5,382.9,337.5,383.1z M345.6,396h-2.5v-9.9h2.5v1.5h0.4
	c0.2-0.6,0.6-1,1.1-1.3c0.5-0.3,1.1-0.5,1.8-0.5c0.5,0,0.9,0.1,1.3,0.2c0.4,0.1,0.8,0.4,1.1,0.7s0.6,0.7,0.7,1.2
	c0.2,0.5,0.3,1.1,0.3,1.8v6.3h-2.5v-5.6c0-0.7-0.2-1.3-0.5-1.7c-0.3-0.4-0.8-0.6-1.5-0.6c-0.7,0-1.3,0.3-1.7,0.8
	c-0.4,0.5-0.5,1.2-0.5,2V396z M362.4,394.6H362c-0.1,0.2-0.2,0.4-0.4,0.7c-0.1,0.2-0.3,0.4-0.6,0.5c-0.2,0.2-0.5,0.3-0.9,0.4
	c-0.3,0.1-0.7,0.1-1.2,0.1c-0.6,0-1.2-0.1-1.7-0.3c-0.5-0.2-1-0.6-1.4-1c-0.4-0.4-0.7-1-0.9-1.6c-0.2-0.6-0.3-1.3-0.3-2.2v-0.4
	c0-0.8,0.1-1.5,0.3-2.1c0.2-0.6,0.6-1.2,1-1.6c0.4-0.4,0.9-0.8,1.4-1c0.5-0.2,1.1-0.3,1.7-0.3c0.8,0,1.4,0.2,1.9,0.5
	c0.5,0.3,0.8,0.7,1.1,1.3h0.4v-1.4h2.5v12.4c0,0.5-0.1,0.8-0.4,1.1c-0.3,0.3-0.6,0.4-1.1,0.4h-6.7v-2.4h5.2c0.4,0,0.5-0.2,0.5-0.6
	V394.6z M359.7,393.9c0.8,0,1.4-0.2,1.9-0.7c0.5-0.5,0.7-1.2,0.7-2v-0.2c0-0.8-0.2-1.5-0.7-2c-0.5-0.5-1.1-0.8-1.9-0.8
	c-0.8,0-1.4,0.2-1.9,0.7c-0.5,0.5-0.7,1.1-0.7,2v0.2c0,0.8,0.2,1.5,0.7,2C358.3,393.6,359,393.9,359.7,393.9z M367.5,393.6h3.5v-9.2
	h-3.4V382h5.9v11.6h3.2v2.4h-9.2V393.6z M382,391.9c0,0.3,0.1,0.6,0.2,0.8c0.1,0.2,0.3,0.5,0.5,0.6c0.2,0.2,0.5,0.3,0.8,0.4
	c0.3,0.1,0.6,0.1,0.9,0.1c0.6,0,1.1-0.1,1.4-0.3c0.3-0.2,0.6-0.5,0.7-0.8l2.2,1.2c-0.1,0.3-0.3,0.5-0.5,0.8
	c-0.2,0.3-0.5,0.5-0.8,0.7c-0.3,0.2-0.7,0.4-1.2,0.6c-0.5,0.1-1,0.2-1.7,0.2c-0.7,0-1.4-0.1-2-0.4c-0.6-0.2-1.1-0.6-1.6-1
	c-0.4-0.5-0.8-1-1-1.7c-0.2-0.7-0.4-1.4-0.4-2.2v-0.1c0-0.8,0.1-1.5,0.4-2.1c0.3-0.6,0.6-1.2,1.1-1.6c0.5-0.4,1-0.8,1.6-1
	c0.6-0.3,1.3-0.4,2-0.4c0.9,0,1.6,0.2,2.2,0.5c0.6,0.3,1.1,0.7,1.5,1.1c0.4,0.5,0.7,1,0.9,1.5c0.2,0.5,0.3,1.1,0.3,1.6v1.3H382z
	 M384.4,388.1c-0.6,0-1.2,0.2-1.6,0.5c-0.4,0.3-0.7,0.7-0.8,1.1h4.7c-0.1-0.5-0.3-0.9-0.8-1.2C385.6,388.2,385,388.1,384.4,388.1z
	 M414,392.4c-0.2,1.2-0.8,2.1-1.6,2.8c-0.8,0.7-2,1.1-3.4,1.1c-0.7,0-1.4-0.1-2.1-0.3c-0.6-0.2-1.2-0.6-1.6-1
	c-0.5-0.4-0.8-1-1.1-1.6c-0.3-0.6-0.4-1.3-0.4-2.1V391c0-0.8,0.1-1.5,0.4-2.2c0.3-0.6,0.6-1.2,1.1-1.6c0.5-0.5,1-0.8,1.7-1
	c0.6-0.2,1.3-0.4,2-0.4c1.4,0,2.5,0.4,3.4,1.1c0.9,0.7,1.4,1.7,1.6,2.8l-2.5,0.6c-0.1-0.6-0.3-1.1-0.8-1.5c-0.4-0.4-1-0.6-1.8-0.6
	c-0.4,0-0.7,0.1-1,0.2c-0.3,0.1-0.6,0.3-0.8,0.6c-0.2,0.2-0.4,0.5-0.6,0.9c-0.1,0.3-0.2,0.7-0.2,1.2v0.1c0,0.4,0.1,0.8,0.2,1.2
	c0.1,0.3,0.3,0.6,0.6,0.8c0.2,0.2,0.5,0.4,0.8,0.5c0.3,0.1,0.7,0.2,1,0.2c0.8,0,1.4-0.2,1.8-0.6c0.4-0.4,0.7-0.9,0.8-1.6L414,392.4z
	 M416.5,393.6h3.5v-9.2h-3.4V382h5.9v11.6h3.2v2.4h-9.2V393.6z M429,393.6h3.4v-5.1h-3.1v-2.4h5.6v7.5h2.9v2.4H429V393.6z
	 M435.5,383.1c0,0.3-0.1,0.5-0.2,0.8c-0.1,0.2-0.2,0.4-0.4,0.6c-0.2,0.2-0.4,0.3-0.6,0.4c-0.2,0.1-0.5,0.1-0.7,0.1
	c-0.3,0-0.5,0-0.7-0.1c-0.2-0.1-0.4-0.2-0.6-0.4c-0.2-0.2-0.3-0.4-0.4-0.6c-0.1-0.2-0.1-0.5-0.1-0.8s0-0.5,0.1-0.7
	c0.1-0.2,0.2-0.4,0.4-0.6c0.2-0.2,0.4-0.3,0.6-0.4c0.2-0.1,0.5-0.2,0.7-0.2c0.3,0,0.5,0.1,0.7,0.2c0.2,0.1,0.4,0.2,0.6,0.4
	c0.2,0.2,0.3,0.4,0.4,0.6C435.4,382.6,435.5,382.9,435.5,383.1z M450.7,392.4c-0.2,1.2-0.8,2.1-1.6,2.8c-0.8,0.7-2,1.1-3.4,1.1
	c-0.7,0-1.4-0.1-2.1-0.3c-0.6-0.2-1.2-0.6-1.6-1c-0.5-0.4-0.8-1-1.1-1.6c-0.3-0.6-0.4-1.3-0.4-2.1V391c0-0.8,0.1-1.5,0.4-2.2
	c0.3-0.6,0.6-1.2,1.1-1.6c0.5-0.5,1-0.8,1.7-1c0.6-0.2,1.3-0.4,2-0.4c1.4,0,2.5,0.4,3.4,1.1c0.9,0.7,1.4,1.7,1.6,2.8l-2.5,0.6
	c-0.1-0.6-0.3-1.1-0.8-1.5s-1-0.6-1.8-0.6c-0.4,0-0.7,0.1-1,0.2c-0.3,0.1-0.6,0.3-0.8,0.6c-0.2,0.2-0.4,0.5-0.6,0.9
	c-0.1,0.3-0.2,0.7-0.2,1.2v0.1c0,0.4,0.1,0.8,0.2,1.2c0.1,0.3,0.3,0.6,0.6,0.8s0.5,0.4,0.8,0.5c0.3,0.1,0.7,0.2,1,0.2
	c0.8,0,1.4-0.2,1.8-0.6c0.4-0.4,0.7-0.9,0.8-1.6L450.7,392.4z M456.6,389.7h0.5l2.6-3.6h2.8v0.1l-3.2,4.5v0.4l3.5,4.8v0.1h-2.9
	l-2.8-3.9h-0.5v3.9h-2.5v-14h2.5V389.7z M472,394.4c0,0.3-0.1,0.5-0.2,0.8c-0.1,0.2-0.2,0.4-0.4,0.6c-0.2,0.2-0.4,0.3-0.6,0.4
	c-0.2,0.1-0.5,0.2-0.7,0.2c-0.3,0-0.5-0.1-0.7-0.2c-0.2-0.1-0.4-0.2-0.6-0.4c-0.2-0.2-0.3-0.4-0.4-0.6c-0.1-0.2-0.1-0.5-0.1-0.8
	s0-0.5,0.1-0.7c0.1-0.2,0.2-0.4,0.4-0.6c0.2-0.2,0.4-0.3,0.6-0.4c0.2-0.1,0.5-0.2,0.7-0.2c0.3,0,0.5,0.1,0.7,0.2
	c0.2,0.1,0.4,0.2,0.6,0.4c0.2,0.2,0.3,0.4,0.4,0.6C471.9,393.9,472,394.1,472,394.4z"/>
<circle class="st12" cx="317" cy="443.5" r="3.5"/>
</svg>
