<svg width="48" height="37" viewBox="0 0 48 37" fill="none" xmlns="http://www.w3.org/2000/svg">
<path d="M40.5021 3.09323C45.8973 11.0747 48.5617 20.0776 47.5657 30.4421C47.5615 30.4859 47.5388 30.5262 47.503 30.5526C43.4174 33.5712 39.4589 35.4032 35.556 36.618C35.5256 36.6273 35.4931 36.6268 35.463 36.6166C35.4329 36.6063 35.4068 36.5869 35.3882 36.561C34.4865 35.2986 33.6672 33.9678 32.9495 32.5702C32.9083 32.4879 32.9459 32.3888 33.0307 32.3563C34.3319 31.863 35.5691 31.2718 36.7592 30.5718C36.853 30.5166 36.859 30.3814 36.7724 30.3165C36.5198 30.1278 36.2696 29.9295 36.0301 29.7313C35.9853 29.6946 35.925 29.6874 35.8743 29.712C28.1479 33.302 19.684 33.302 11.8662 29.712C11.8155 29.6892 11.7551 29.697 11.7116 29.7331C11.4727 29.9313 11.2219 30.1278 10.9717 30.3165C10.8851 30.3814 10.8923 30.5166 10.9866 30.5718C12.1767 31.2586 13.414 31.863 14.7134 32.3587C14.7976 32.3912 14.8376 32.4879 14.7958 32.5702C14.0936 33.9696 13.2743 35.3004 12.3559 36.5628C12.3159 36.6138 12.2502 36.6373 12.1881 36.618C8.30367 35.4032 4.34522 33.5712 0.259579 30.5526C0.225542 30.5262 0.201059 30.4841 0.197476 30.4402C-0.634939 21.4752 1.06154 12.3978 7.25449 3.09143C7.26942 3.06679 7.29211 3.04757 7.31839 3.03615C10.3656 1.62899 13.6302 0.593755 17.0422 0.00253283C17.1043 -0.00708053 17.1664 0.0217596 17.1987 0.0770364C17.6203 0.828081 18.1022 1.79122 18.4282 2.57831C22.0248 2.02555 25.6775 2.02555 29.3493 2.57831C29.6754 1.80804 30.1405 0.828081 30.5603 0.0770364C30.5753 0.0496142 30.5984 0.0276449 30.6265 0.0142652C30.6546 0.000885461 30.6862 -0.00322074 30.7168 0.00253283C34.1306 0.595557 37.3952 1.6308 40.44 3.03615C40.4669 3.04757 40.489 3.06679 40.5021 3.09323ZM20.2566 20.1389C20.2943 17.4886 18.3739 15.2956 15.9632 15.2956C13.5722 15.2956 11.6704 17.4694 11.6704 20.1389C11.6704 22.8078 13.6099 24.9817 15.9632 24.9817C18.3548 24.9817 20.2566 22.8078 20.2566 20.1389ZM36.1299 20.1389C36.1675 17.4886 34.2471 15.2956 31.837 15.2956C29.4455 15.2956 27.5436 17.4694 27.5436 20.1389C27.5436 22.8078 29.4831 24.9817 31.837 24.9817C34.2471 24.9817 36.1299 22.8078 36.1299 20.1389Z" fill="#5865F2"/>
</svg>
