<svg xmlns="http://www.w3.org/2000/svg" viewBox="0 0 813 713" width="813" height="713" style="width: 100%; height: 100%; transform: translate3d(0px, 0px, 0px);" preserveAspectRatio="xMidYMid meet">
	<defs>
		<clipPath id="__lottie_element_106">
			<rect width="813" height="713" x="0" y="0">
			</rect>
		</clipPath>
		<clipPath id="__lottie_element_108">
			<path d="M0,0 L813,0 L813,713 L0,713z">
			</path>
		</clipPath>
	</defs>
	<g clip-path="url(#__lottie_element_106)">
		<g style="display: block;" transform="matrix(0.9987580180168152,-0.0498235821723938,0.0498235821723938,0.9987580180168152,-10.7889404296875,8.245269775390625)" opacity="1">
			<g opacity="1" transform="matrix(1,0,0,1,150.43600463867188,189.031005859375)">
				<path fill="rgb(240,234,207)" fill-opacity="1" d=" M41.625999450683594,-31.878999710083008 C45.6609992980957,-32.51100158691406 49.37900161743164,-29.21500015258789 49.512001037597656,-24.868999481201172 C50.36600112915039,3.118000030517578 32.875,27.47800064086914 7.736000061035156,31.413999557495117 C-17.402999877929688,35.349998474121094 -41.50199890136719,17.5 -49.242000579833984,-9.407999992370605 C-50.444000244140625,-13.586000442504883 -47.9109992980957,-17.861000061035156 -43.875999450683594,-18.493000030517578 C-43.875999450683594,-18.493000030517578 41.625999450683594,-31.878999710083008 41.625999450683594,-31.878999710083008z">
				</path>
			</g>
			<g opacity="1" transform="matrix(1,0,0,1,103.56400299072266,194.91900634765625)">
				<path fill="rgb(240,234,207)" fill-opacity="1" d=" M8.904000282287598,16.684999465942383 C8.375,16.76300048828125 7.815999984741211,16.62299919128418 7.374000072479248,16.25200080871582 C-6.664999961853027,4.47599983215332 -10.371000289916992,-13.62399959564209 -10.522000312805176,-14.388999938964844 C-10.729000091552734,-15.4399995803833 -10.045999526977539,-16.459999084472656 -8.994999885559082,-16.66699981689453 C-7.943999767303467,-16.8799991607666 -6.925000190734863,-16.19099998474121 -6.7170000076293945,-15.140999794006348 C-6.7170000076293945,-15.140999794006348 -6.7170000076293945,-15.140999794006348 -6.7170000076293945,-15.140999794006348 C-6.682000160217285,-14.967000007629395 -3.1010000705718994,2.4049999713897705 9.866000175476074,13.281000137329102 C10.687000274658203,13.968999862670898 10.793000221252441,15.192000389099121 10.104999542236328,16.01300048828125 C9.788000106811523,16.391000747680664 9.357000350952148,16.618000030517578 8.904000282287598,16.684999465942383z">
				</path>
			</g>
		</g>
		<g style="display: block;" transform="matrix(0.9908558130264282,-0.13492503762245178,0.13492503762245178,0.9908558130264282,-17.182525634765625,57.42506408691406)" opacity="1">
			<g opacity="1" transform="matrix(1,0,0,1,423.16400146484375,127.47899627685547)">
				<path fill="rgb(88,209,189)" fill-opacity="1" d=" M43.82600021362305,-20.61199951171875 C47.87900161743164,-20.111000061035156 50.54999923706055,-15.920000076293945 49.48400115966797,-11.704999923706055 C42.617000579833984,15.4399995803833 19.10700035095215,34.05699920654297 -6.145999908447266,30.93600082397461 C-31.39900016784668,27.815000534057617 -49.667999267578125,4.0329999923706055 -49.71900177001953,-23.966999053955078 C-49.72700119018555,-28.315000534057617 -46.11600112915039,-31.729999542236328 -42.0629997253418,-31.229000091552734 C-42.0629997253418,-31.229000091552734 43.82600021362305,-20.61199951171875 43.82600021362305,-20.61199951171875z">
				</path>
			</g>
			<g opacity="1" transform="matrix(1,0,0,1,371.4750061035156,118.87200164794922)">
				<path fill="rgb(88,209,189)" fill-opacity="1" d=" M4.02400016784668,18.488000869750977 C3.49399995803833,18.417999267578125 2.994999885559082,18.128999710083008 2.671999931335449,17.650999069213867 C-7.5920000076293945,2.4719998836517334 -6.183000087738037,-15.949999809265137 -6.118000030517578,-16.726999282836914 C-6.0289998054504395,-17.79400062561035 -5.091000080108643,-18.586999893188477 -4.02400016784668,-18.49799919128418 C-2.9549999237060547,-18.413999557495117 -2.1649999618530273,-17.47100067138672 -2.253000020980835,-16.405000686645508 C-2.253000020980835,-16.405000686645508 -2.253000020980835,-16.405000686645508 -2.253000020980835,-16.405000686645508 C-2.2679998874664307,-16.22800064086914 -3.5950000286102295,1.4589999914169312 5.885000228881836,15.479000091552734 C6.485000133514404,16.365999221801758 6.251999855041504,17.570999145507812 5.364999771118164,18.17099952697754 C4.955999851226807,18.447999954223633 4.478000164031982,18.54800033569336 4.02400016784668,18.488000869750977z">
				</path>
			</g>
		</g>
		<g style="display: block;" transform="matrix(0.9985629320144653,-0.05359116196632385,0.05359116196632385,0.9985629320144653,-28.6656494140625,10.00018310546875)" opacity="1">
			<g opacity="1" transform="matrix(1,0,0,1,184.8300018310547,510.510986328125)">
				<path fill="rgb(88,209,189)" fill-opacity="1" d=" M44.51300048828125,-16.672000885009766 C48.58100128173828,-15.904000282287598 51.01300048828125,-11.491999626159668 49.66299819946289,-7.296000003814697 C40.96799850463867,19.725000381469727 15.982999801635742,37.04800033569336 -9.364999771118164,32.263999938964844 C-34.7130012512207,27.479999542236328 -51.66600036621094,2.240999937057495 -49.91400146484375,-26.09000015258789 C-49.641998291015625,-30.48900032043457 -45.76900100708008,-33.71099853515625 -41.70100021362305,-32.94300079345703 C-41.70100021362305,-32.94300079345703 44.51300048828125,-16.672000885009766 44.51300048828125,-16.672000885009766z">
				</path>
			</g>
			<g opacity="1" transform="matrix(1,0,0,1,131.78199768066406,499.8380126953125)">
				<path fill="rgb(88,209,189)" fill-opacity="1" d=" M3.0329999923706055,18.961000442504883 C2.500999927520752,18.856000900268555 2.0139999389648438,18.533000946044922 1.718000054359436,18.027999877929688 C-7.689000129699707,2.009999990463257 -5.077000141143799,-16.538000106811523 -4.960999965667725,-17.31999969482422 C-4.802000045776367,-18.393999099731445 -3.802000045776367,-19.13599967956543 -2.7279999256134033,-18.976999282836914 C-1.6519999504089355,-18.822999954223633 -0.9129999876022339,-17.819000244140625 -1.0709999799728394,-16.746000289916992 C-1.0709999799728394,-16.746000289916992 -1.0709999799728394,-16.746000289916992 -1.0709999799728394,-16.746000289916992 C-1.097000002861023,-16.56800079345703 -3.5799999237060547,1.2419999837875366 5.109000205993652,16.03700065612793 C5.658999919891357,16.972999572753906 5.34499979019165,18.177000045776367 4.408999919891357,18.726999282836914 C3.9769999980926514,18.981000900268555 3.489000082015991,19.051000595092773 3.0329999923706055,18.961000442504883z">
				</path>
			</g>
		</g>
		<g style="display: block;" transform="matrix(0.9951725602149963,-0.09814085811376572,0.09814085811376572,0.9951725602149963,-56.309539794921875,43.14093017578125)" opacity="1">
			<g opacity="1" transform="matrix(1,0,0,1,399.54400634765625,560.947998046875)">
				<path fill="rgb(238,178,123)" fill-opacity="1" d=" M49.38100051879883,-37.09600067138672 C54.150001525878906,-37.744998931884766 58.45399856567383,-33.77399826049805 58.507999420166016,-28.650999069213867 C58.856998443603516,4.3420000076293945 37.67599868774414,32.632999420166016 7.965000152587891,36.67900085449219 C-21.746000289916992,40.724998474121094 -49.71900177001953,19.128999710083008 -58.20600128173828,-12.755999565124512 C-59.52399826049805,-17.707000732421875 -56.43899917602539,-22.684999465942383 -51.66999816894531,-23.333999633789062 C-51.66999816894531,-23.333999633789062 49.38100051879883,-37.09600067138672 49.38100051879883,-37.09600067138672z">
				</path>
			</g>
			<g opacity="1" transform="matrix(1,0,0,1,343.7699890136719,566.27001953125)">
				<path fill="rgb(238,178,123)" fill-opacity="1" d=" M10.097999572753906,19.867000579833984 C9.472999572753906,19.94700050354004 8.817000389099121,19.76799964904785 8.305000305175781,19.320999145507812 C-7.959000110626221,5.117000102996826 -11.89900016784668,-16.295000076293945 -12.059000015258789,-17.200000762939453 C-12.279000282287598,-18.44300079345703 -11.449000358581543,-19.628999710083008 -10.206000328063965,-19.847999572753906 C-8.961999893188477,-20.073999404907227 -7.7779998779296875,-19.23900032043457 -7.558000087738037,-17.996999740600586 C-7.558000087738037,-17.996999740600586 -7.558000087738037,-17.996999740600586 -7.558000087738037,-17.996999740600586 C-7.520999908447266,-17.791000366210938 -3.7100000381469727,2.759999990463257 11.312000274658203,15.878999710083008 C12.262999534606934,16.708999633789062 12.359999656677246,18.152000427246094 11.529999732971191,19.10300064086914 C11.147000312805176,19.541000366210938 10.633000373840332,19.798999786376953 10.097999572753906,19.867000579833984z">
				</path>
			</g>
		</g>
		<g style="display: block;" transform="matrix(1,0,0,1,675.4710083007812,326.95098876953125)" opacity="1">
			<g opacity="1" transform="matrix(1,0,0,1,0,0)">
				<path fill="rgb(55,112,255)" fill-opacity="1" d=" M-65.87699890136719,99.6729965209961 C1.3040000200271606,50.54499816894531 0.05700000002980232,-51.29999923706055 -68.30799865722656,-98.76799774169922 C-56.38600158691406,-129.9199981689453 -44.4630012512207,-161.072998046875 -32.54100036621094,-192.2259979248047 C99.90699768066406,-100.26399993896484 102.3239974975586,97.0459976196289 -27.83099937438965,192.2259979248047 C-40.51300048828125,161.375 -53.19499969482422,130.5240020751953 -65.87699890136719,99.6729965209961z">
				</path>
			</g>
		</g>
		<g style="display: none;" transform="matrix(1,0,0,1,574.2009887695312,328.8190002441406)" opacity="1">
			<g opacity="1" transform="matrix(1,0,0,1,0,0)">
				<path fill="rgb(55,112,255)" fill-opacity="1" d=" M-35.97100067138672,53.65700149536133 C0.703000009059906,27.204999923706055 0.03099999949336052,-27.618000030517578 -37.279998779296875,-53.16400146484375 C-30.770000457763672,-69.93399810791016 -24.259000778198242,-86.7040023803711 -17.749000549316406,-103.4749984741211 C54.5359992980957,-53.98400115966797 55.8380012512207,52.22800064086914 -15.213000297546387,103.4749984741211 C-22.131999969482422,86.86900329589844 -29.052000045776367,70.26300048828125 -35.97100067138672,53.65700149536133z">
				</path>
			</g>
		</g>
		<g style="display: none;" transform="matrix(1,0,0,1,513.2049560546875,332.052001953125)" opacity="1">
			<g opacity="1" transform="matrix(1,0,0,1,0,0)">
				<path fill="rgb(55,112,255)" fill-opacity="1" d=" M-17.34600067138672,25.874000549316406 C0.33899998664855957,13.119000434875488 0.014999999664723873,-13.317999839782715 -17.976999282836914,-25.63599967956543 C-14.838000297546387,-33.722999572753906 -11.697999954223633,-41.810001373291016 -8.559000015258789,-49.89699935913086 C26.29800033569336,-26.031999588012695 26.926000595092773,25.184999465942383 -7.335999965667725,49.89699935913086 C-10.67300033569336,41.888999938964844 -14.008999824523926,33.88199996948242 -17.34600067138672,25.874000549316406z">
				</path>
			</g>
		</g>
		<g clip-path="url(#__lottie_element_108)" style="display: block;" transform="matrix(1,0,0,1,0,0)" opacity="1">
			<g style="display: block;" transform="matrix(0.9998477101325989,-0.017452405765652657,0.01730525866150856,0.9914175868034363,307.9219055175781,367.53167724609375)" opacity="1">
				<g opacity="1" transform="matrix(1,0,0,1,0,0)">
					<path fill="rgb(255,215,74)" fill-opacity="1" d=" M100.26100158691406,-66.90699768066406 C109.73699951171875,-66.98999786376953 117.15799713134766,-58.1619987487793 115.98999786376953,-48.14099884033203 C108.46600341796875,16.393999099731445 60.05799865722656,66.38800048828125 1.0149999856948853,66.90299987792969 C-58.02799987792969,67.41799926757812 -107.302001953125,18.277999877929688 -115.95099639892578,-46.11600112915039 C-117.29399871826172,-56.1150016784668 -110.02799987792969,-65.07099914550781 -100.552001953125,-65.15399932861328 C-100.552001953125,-65.15399932861328 100.26100158691406,-66.90699768066406 100.26100158691406,-66.90699768066406z">
					</path>
				</g>
			</g>
			<g style="display: block;" transform="matrix(1,0,0,1,352.8427429199219,268.81829833984375)" opacity="1">
				<g opacity="1" transform="matrix(1,0,0,1,0,0)">
					<path stroke-linecap="round" stroke-linejoin="miter" fill-opacity="0" stroke-miterlimit="10" stroke="rgb(39,51,57)" stroke-opacity="1" stroke-width="9" d=" M-27.405000686645508,-9.300000190734863 C-23.075000762939453,1.600000023841858 -12.444999694824219,9.300000190734863 -0.004999999888241291,9.300000190734863 C12.4350004196167,9.300000190734863 23.075000762939453,1.600000023841858 27.405000686645508,-9.300000190734863">
					</path>
				</g>
			</g>
			<g style="display: block;" transform="matrix(1,0,0,1,273.98175048828125,268.81829833984375)" opacity="1">
				<g opacity="1" transform="matrix(1,0,0,1,0,0)">
					<path stroke-linecap="round" stroke-linejoin="miter" fill-opacity="0" stroke-miterlimit="10" stroke="rgb(39,51,57)" stroke-opacity="1" stroke-width="9" d=" M-27.405000686645508,-9.300000190734863 C-23.075000762939453,1.600000023841858 -12.444999694824219,9.300000190734863 -0.004999999888241291,9.300000190734863 C12.4350004196167,9.300000190734863 23.075000762939453,1.600000023841858 27.405000686645508,-9.300000190734863">
					</path>
				</g>
			</g>
			<g style="display: block;" transform="matrix(0.9999629259109497,0.008608933538198471,-0.008608933538198471,0.9999629259109497,424.48394775390625,296.64984130859375)" opacity="1">
				<g opacity="1" transform="matrix(1,0,0,1,0,0)">
					<path stroke-linecap="round" stroke-linejoin="miter" fill-opacity="0" stroke-miterlimit="10" stroke="rgb(39,51,57)" stroke-opacity="1" stroke-width="9" d=" M-15.949999809265137,-14.013999938964844 C-15.949999809265137,-14.013999938964844 6.229000091552734,-10.954000473022461 14.42300033569336,9.392000198364258">
					</path>
				</g>
			</g>
			<g style="display: block;" transform="matrix(0.999972939491272,-0.007356604561209679,0.007356604561209679,0.999972939491272,192.87371826171875,357.7920837402344)" opacity="1">
				<g opacity="1" transform="matrix(1,0,0,1,0,0)">
					<path stroke-linecap="round" stroke-linejoin="miter" fill-opacity="0" stroke-miterlimit="10" stroke="rgb(255,215,74)" stroke-opacity="1" stroke-width="9" d=" M-14.782999992370605,-36.816001892089844 C-14.782999992370605,-36.816001892089844 -12.72599983215332,5.8470001220703125 14.782999992370605,36.816001892089844">
					</path>
				</g>
			</g>
		</g>
	</g>
</svg>
