<svg xmlns="http://www.w3.org/2000/svg" viewBox="0 0 1041 1110" width="1041" height="1110" style="width: 100%; height: 100%; transform: translate3d(0px, 0px, 0px);" preserveAspectRatio="xMidYMid meet">
	<defs>
		<clipPath id="__lottie_element_37">
			<rect width="1041" height="1110" x="0" y="0">
			</rect>
		</clipPath>
	</defs>
	<g clip-path="url(#__lottie_element_37)">
		<g style="display: block;" transform="matrix(1.0000004768371582,0,0,1.0000004768371582,455.96099853515625,452.87799072265625)" opacity="1">
			<g opacity="1" transform="matrix(3,0,0,3,0,0)">
				<path fill="rgb(57,54,171)" fill-opacity="1" d=" M64.90799713134766,62.07099914550781 C64.90799713134766,62.07099914550781 86.83300018310547,68.27799987792969 86.83300018310547,68.27799987792969 C91.7229995727539,69.70999908447266 95.66600036621094,64.13999938964844 92.8270034790039,59.68299865722656 C92.8270034790039,59.68299865722656 79.73500061035156,40.90299987792969 79.73500061035156,40.90299987792969 C77.36900329589844,37.560001373291016 79.41899871826172,32.7859992980957 83.5199966430664,32.30799865722656 C83.5199966430664,32.30799865722656 106.07599639892578,29.444000244140625 106.07599639892578,29.444000244140625 C111.1240005493164,28.80699920654297 112.54299926757812,21.96299934387207 108.28500366210938,19.257999420166016 C108.28500366210938,19.257999420166016 89.04100036621094,6.8429999351501465 89.04100036621094,6.8429999351501465 C85.57099914550781,4.614999771118164 85.72899627685547,-0.4779999852180481 89.35700225830078,-2.546999931335449 C89.35700225830078,-2.546999931335449 109.23100280761719,-13.847000122070312 109.23100280761719,-13.847000122070312 C113.64800262451172,-16.39299964904785 112.54299926757812,-23.077999114990234 107.49600219726562,-24.033000946044922 C107.49600219726562,-24.033000946044922 85.0979995727539,-28.01099967956543 85.0979995727539,-28.01099967956543 C80.99700164794922,-28.648000717163086 79.26200103759766,-33.42300033569336 81.78500366210938,-36.76499938964844 C81.78500366210938,-36.76499938964844 95.50800323486328,-54.75 95.50800323486328,-54.75 C98.66300201416016,-58.729000091552734 95.03500366210938,-64.61699676513672 89.98699951171875,-63.50299835205078 C89.98699951171875,-63.50299835205078 67.74700164794922,-58.569000244140625 67.74700164794922,-58.569000244140625 C63.645999908447266,-57.61399841308594 60.17599868774414,-61.433998107910156 61.279998779296875,-65.41300201416016 C61.279998779296875,-65.41300201416016 67.43099975585938,-87.53600311279297 67.43099975585938,-87.53600311279297 C68.85099792480469,-92.62899780273438 63.33000183105469,-96.60800170898438 59.07099914550781,-93.58399963378906 C59.07099914550781,-93.58399963378906 40.45899963378906,-80.3740005493164 40.45899963378906,-80.3740005493164 C37.145999908447266,-77.98699951171875 32.41400146484375,-80.05599975585938 31.94099998474121,-84.19400024414062 C31.94099998474121,-84.19400024414062 29.260000228881836,-107.11199951171875 29.260000228881836,-107.11199951171875 C28.628999710083008,-112.20500183105469 21.84600067138672,-113.63700103759766 19.165000915527344,-109.33999633789062 C19.165000915527344,-109.33999633789062 6.861000061035156,-89.9229965209961 6.861000061035156,-89.9229965209961 C4.6529998779296875,-86.4219970703125 -0.39399999380111694,-86.58000183105469 -2.444999933242798,-90.24099731445312 C-2.444999933242798,-90.24099731445312 -13.644000053405762,-110.29499816894531 -13.644000053405762,-110.29499816894531 C-16.167999267578125,-114.7509994506836 -22.792999267578125,-113.63700103759766 -23.73900032043457,-108.54399871826172 C-23.73900032043457,-108.54399871826172 -27.68199920654297,-85.94400024414062 -27.68199920654297,-85.94400024414062 C-28.312999725341797,-81.80599975585938 -33.04600143432617,-80.05599975585938 -36.358001708984375,-82.60199737548828 C-36.358001708984375,-82.60199737548828 -54.34000015258789,-96.76699829101562 -54.34000015258789,-96.76699829101562 C-58.28300094604492,-99.94999694824219 -64.11900329589844,-96.28900146484375 -63.01499938964844,-91.19599914550781 C-63.01499938964844,-91.19599914550781 -58.125,-68.75499725341797 -58.125,-68.75499725341797 C-57.17900085449219,-64.61699676513672 -60.96500015258789,-61.11600112915039 -64.90799713134766,-62.22999954223633 C-64.90799713134766,-62.22999954223633 -86.83300018310547,-68.27799987792969 -86.83300018310547,-68.27799987792969 C-91.88099670410156,-69.70999908447266 -95.8239974975586,-64.13999938964844 -92.8270034790039,-59.84299850463867 C-92.8270034790039,-59.84299850463867 -79.73500061035156,-41.0620002746582 -79.73500061035156,-41.0620002746582 C-77.36900329589844,-37.720001220703125 -79.41899871826172,-32.94499969482422 -83.5199966430664,-32.46799850463867 C-83.5199966430664,-32.46799850463867 -106.23400115966797,-29.761999130249023 -106.23400115966797,-29.761999130249023 C-111.28199768066406,-29.125 -112.7020034790039,-22.281999588012695 -108.44300079345703,-19.576000213623047 C-108.44300079345703,-19.576000213623047 -89.04100036621094,-7.1620001792907715 -89.04100036621094,-7.1620001792907715 C-85.57099914550781,-4.934000015258789 -85.72899627685547,0.1589999943971634 -89.35700225830078,2.2279999256134033 C-89.35700225830078,2.2279999256134033 -109.23100280761719,13.527999877929688 -109.23100280761719,13.527999877929688 C-113.64800262451172,16.073999404907227 -112.54399871826172,22.759000778198242 -107.49600219726562,23.714000701904297 C-107.49600219726562,23.714000701904297 -85.0979995727539,27.851999282836914 -85.0979995727539,27.851999282836914 C-80.99700164794922,28.48900032043457 -79.26100158691406,33.26300048828125 -81.78500366210938,36.60599899291992 C-81.78500366210938,36.60599899291992 -95.8239974975586,54.749000549316406 -95.8239974975586,54.749000549316406 C-98.97899627685547,58.72800064086914 -95.35099792480469,64.61699676513672 -90.3030014038086,63.50299835205078 C-90.3030014038086,63.50299835205078 -67.90499877929688,58.569000244140625 -67.90499877929688,58.569000244140625 C-63.80400085449219,57.61399841308594 -60.33399963378906,61.433998107910156 -61.4379997253418,65.41300201416016 C-61.4379997253418,65.41300201416016 -67.58899688720703,87.53500366210938 -67.58899688720703,87.53500366210938 C-69.00900268554688,92.62799835205078 -63.487998962402344,96.60700225830078 -59.229000091552734,93.58300018310547 C-59.229000091552734,93.58300018310547 -40.617000579833984,80.37300109863281 -40.617000579833984,80.37300109863281 C-37.30500030517578,77.98600006103516 -32.571998596191406,80.05500030517578 -32.0989990234375,84.19300079345703 C-32.0989990234375,84.19300079345703 -29.41699981689453,107.11199951171875 -29.41699981689453,107.11199951171875 C-28.785999298095703,112.20500183105469 -22.003999710083008,113.63700103759766 -19.32200050354004,109.33999633789062 C-19.32200050354004,109.33999633789062 -7.019000053405762,89.9229965209961 -7.019000053405762,89.9229965209961 C-4.810999870300293,86.4209976196289 0.23600000143051147,86.58100128173828 2.2869999408721924,90.24099731445312 C2.2869999408721924,90.24099731445312 13.486000061035156,110.29499816894531 13.486000061035156,110.29499816894531 C16.010000228881836,114.7509994506836 22.635000228881836,113.63700103759766 23.58099937438965,108.54399871826172 C23.58099937438965,108.54399871826172 27.68199920654297,85.78500366210938 27.68199920654297,85.78500366210938 C28.312999725341797,81.64700317382812 33.04499816894531,79.89600372314453 36.358001708984375,82.44200134277344 C36.358001708984375,82.44200134277344 54.3390007019043,96.60700225830078 54.3390007019043,96.60700225830078 C58.28300094604492,99.79000091552734 64.11900329589844,96.12999725341797 63.01499938964844,91.03700256347656 C63.01499938964844,91.03700256347656 58.125,68.59600067138672 58.125,68.59600067138672 C57.17900085449219,64.45800018310547 60.9640007019043,60.95600128173828 64.90799713134766,62.07099914550781z">
				</path>
			</g>
		</g>
		<g style="display: block;" transform="matrix(1.0000003576278687,0,0,1.0000003576278687,120.29900360107422,124.44200134277344)" opacity="1">
			<g opacity="1" transform="matrix(1.1858189105987549,-2.7556910514831543,2.7556910514831543,1.1858189105987549,0,0)">
				<path fill="rgb(0,233,123)" fill-opacity="1" d=" M-1.9910000562667847,30.549999237060547 C14.043999671936035,30.549999237060547 30.615999221801758,18.15399932861328 30.615999221801758,1.809999942779541 C30.615999221801758,-14.534000396728516 14.043999671936035,-30.549999237060547 -1.9910000562667847,-30.549999237060547 C-18.025999069213867,-30.549999237060547 -30.615999221801758,-14.644000053405762 -30.615999221801758,1.809999942779541 C-30.615999221801758,18.263999938964844 -18.025999069213867,30.549999237060547 -1.9910000562667847,30.549999237060547z">
				</path>
			</g>
		</g>
		<g style="display: block;" transform="matrix(1.0000001192092896,0,0,1.0000001192092896,267.39300537109375,933.9719848632812)" opacity="1">
			<g opacity="1" transform="matrix(2.728165864944458,-1.24784255027771,1.24784255027771,2.728165864944458,0,0)">
				<path fill="rgb(128,161,238)" fill-opacity="1" d=" M-45.42100143432617,-33.92499923706055 C-45.42100143432617,-33.92499923706055 -24.31800079345703,38.58300018310547 -24.31800079345703,38.58300018310547 C-23.145999908447266,42.75600051879883 -18.847000122070312,45.10300064086914 -14.809000015258789,43.92900085449219 C-14.809000015258789,43.92900085449219 40.1609992980957,27.888999938964844 40.1609992980957,27.888999938964844 C44.459999084472656,26.584999084472656 46.80400085449219,22.020999908447266 45.24100112915039,17.847999572753906 C30.26099967956543,-22.708999633789062 -5.039000034332275,-48.27000045776367 -39.167999267578125,-43.70600128173828 C-43.72700119018555,-43.05400085449219 -46.7239990234375,-38.35900115966797 -45.42100143432617,-33.92499923706055z">
				</path>
			</g>
		</g>
		<g style="display: block;" transform="matrix(1.0000001192092896,0,0,1.0000001192092896,930.0020141601562,499.9010009765625)" opacity="1">
			<g opacity="1" transform="matrix(2.931069850921631,0.6393980979919434,-0.6393980979919434,2.931069850921631,0,0)">
				<path fill="rgb(255,215,74)" fill-opacity="1" d=" M-31.42099952697754,-23.48699951171875 C-31.42099952697754,-23.48699951171875 -16.822999954223633,26.711999893188477 -16.822999954223633,26.711999893188477 C-16.011999130249023,29.60099983215332 -13.038000106811523,31.225000381469727 -10.244999885559082,30.413000106811523 C-10.244999885559082,30.413000106811523 27.781999588012695,19.308000564575195 27.781999588012695,19.308000564575195 C30.756000518798828,18.405000686645508 32.37699890136719,15.244999885559082 31.29599952697754,12.355999946594238 C20.933000564575195,-15.722999572753906 -3.4860000610351562,-33.41899871826172 -27.094999313354492,-30.259000778198242 C-30.249000549316406,-29.808000564575195 -32.321998596191406,-26.55699920654297 -31.42099952697754,-23.48699951171875z">
				</path>
			</g>
		</g>
		<g style="display: block;" transform="matrix(1.0000003576278687,0,0,1.0000003576278687,764.7890014648438,878.1339721679688)" opacity="1">
			<g opacity="1" transform="matrix(2.9869067668914795,0.2799791097640991,-0.2799791097640991,2.9869067668914795,0,0)">
				<path fill="rgb(1,231,122)" fill-opacity="1" d=" M4.340000152587891,4.557000160217285 C-9.355999946594238,15.817000389099121 -28.606000900268555,19.826000213623047 -47.29899978637695,14.291000366210938 C-54.88800048828125,28.222999572753906 -62.47600173950195,41.58300018310547 -70.06400299072266,55.51499938964844 C-46.37300109863281,62.57699966430664 -22.868000030517578,60.85900115966797 -1.9529999494552612,52.84299850463867 C19.886999130249023,44.44499969482422 39.691001892089844,29.75 52.46200180053711,9.710000038146973 C64.6780014038086,-9.565999984741211 71.34100341796875,-34.37799835205078 69.86000061035156,-59.952999114990234 C55.053001403808594,-55.18199920654297 38.395999908447266,-50.40999984741211 23.589000701904297,-45.82899856567383 C24.885000228881836,-25.788999557495117 18.035999298095703,-6.703000068664551 4.340000152587891,4.557000160217285z">
				</path>
			</g>
		</g>
	</g>
</svg>
