<svg xmlns="http://www.w3.org/2000/svg" viewBox="0 0 1356 1146" width="1356" height="1146" style="width: 100%; height: 100%; transform: translate3d(0px, 0px, 0px);" preserveAspectRatio="xMidYMid meet">
	<defs>
		<clipPath id="__lottie_element_54">
			<rect width="1356" height="1146" x="0" y="0">
			</rect>
		</clipPath>
	</defs>
	<g clip-path="url(#__lottie_element_54)">
		<g style="display: block;" transform="matrix(1.0000025033950806,0,0,1.0000025033950806,716.5380249023438,550.5269775390625)" opacity="1">
			<g opacity="1" transform="matrix(2.9279329776763916,-0.6536121368408203,0.6536121368408203,2.9279329776763916,0,0)">
				<path fill="rgb(57,54,171)" fill-opacity="1" d=" M-5.888999938964844,88.94999694824219 C41.54100036621094,88.94999694824219 90.56199645996094,52.85900115966797 90.56199645996094,5.269999980926514 C90.56199645996094,-42.319000244140625 41.54100036621094,-88.94999694824219 -5.888999938964844,-88.94999694824219 C-53.319000244140625,-88.94999694824219 -90.56199645996094,-42.63800048828125 -90.56199645996094,5.269999980926514 C-90.56199645996094,53.178001403808594 -53.319000244140625,88.94999694824219 -5.888999938964844,88.94999694824219z">
				</path>
			</g>
		</g>
		<g style="display: block;" transform="matrix(1.000002145767212,0,0,1.000002145767212,666.677978515625,122.91799926757812)" opacity="1">
			<g opacity="1" transform="matrix(2.997532606124878,-0.12165099382400513,0.12165099382400513,2.997532606124878,0,0)">
				<path fill="rgb(128,161,238)" fill-opacity="1" d=" M-2.6080000400543213,39.3849983215332 C18.39699935913086,39.3849983215332 40.106998443603516,23.40399932861328 40.106998443603516,2.3329999446868896 C40.106998443603516,-18.738000869750977 18.39699935913086,-39.3849983215332 -2.6080000400543213,-39.3849983215332 C-23.613000869750977,-39.3849983215332 -40.106998443603516,-18.8799991607666 -40.106998443603516,2.3329999446868896 C-40.106998443603516,23.54599952697754 -23.613000869750977,39.3849983215332 -2.6080000400543213,39.3849983215332z">
				</path>
			</g>
		</g>
		<g style="display: block;" transform="matrix(1.0000033378601074,0,0,1.0000033378601074,358.0840148925781,744.5469970703125)" opacity="1">
			<g opacity="1" transform="matrix(2.5959267616271973,-1.5037167072296143,1.5037167072296143,2.5959267616271973,0,0)">
				<path fill="rgb(255,215,74)" fill-opacity="1" d=" M-1.4470000267028809,21.881999969482422 C10.211000442504883,21.881999969482422 22.260000228881836,13.003000259399414 22.260000228881836,1.2960000038146973 C22.260000228881836,-10.41100025177002 10.211000442504883,-21.881999969482422 -1.4470000267028809,-21.881999969482422 C-13.104999542236328,-21.881999969482422 -22.260000228881836,-10.489999771118164 -22.260000228881836,1.2960000038146973 C-22.260000228881836,13.081999778747559 -13.104999542236328,21.881999969482422 -1.4470000267028809,21.881999969482422z">
				</path>
			</g>
		</g>
		<g style="display: block;" transform="matrix(1.0000030994415283,0,0,1.0000030994415283,596.8590087890625,974.0549926757812)" opacity="1">
			<g opacity="1" transform="matrix(2.5959267616271973,-1.5037167072296143,1.5037167072296143,2.5959267616271973,0,0)">
				<path fill="rgb(240,234,207)" fill-opacity="1" d=" M-2.759999990463257,41.7239990234375 C19.469999313354492,41.7239990234375 42.44499969482422,24.795000076293945 42.44499969482422,2.4719998836517334 C42.44499969482422,-19.85099983215332 19.469999313354492,-41.7239990234375 -2.759999990463257,-41.7239990234375 C-24.989999771118164,-41.7239990234375 -42.44499969482422,-20.000999450683594 -42.44499969482422,2.4719998836517334 C-42.44499969482422,24.94499969482422 -24.989999771118164,41.7239990234375 -2.759999990463257,41.7239990234375z">
				</path>
			</g>
		</g>
		<g style="display: block;" transform="matrix(-0.9205073714256287,0.39073219895362854,-0.39073219895362854,-0.9205073714256287,990.4190063476562,945.8779907226562)" opacity="1">
			<g opacity="1" transform="matrix(1.360851764678955,-2.6735899448394775,2.6735899448394775,1.360851764678955,0,0)">
				<path fill="rgb(128,161,238)" fill-opacity="1" d=" M-46.37300109863281,-34.60599899291992 C-46.37300109863281,-34.60599899291992 -24.827999114990234,39.356998443603516 -24.827999114990234,39.356998443603516 C-23.631000518798828,43.61399841308594 -19.243000030517578,46.007999420166016 -15.119999885559082,44.81100082397461 C-15.119999885559082,44.81100082397461 41.00299835205078,28.448999404907227 41.00299835205078,28.448999404907227 C45.391998291015625,27.118999481201172 47.7859992980957,22.46299934387207 46.189998626708984,18.20599937438965 C30.895999908447266,-23.166000366210938 -5.145999908447266,-49.23899841308594 -39.9900016784668,-44.58300018310547 C-44.64500045776367,-43.917999267578125 -47.702999114990234,-39.12900161743164 -46.37300109863281,-34.60599899291992z">
				</path>
			</g>
		</g>
		<g style="display: block;" transform="matrix(1.000002384185791,0,0,1.000002384185791,1156.18603515625,594.1900024414062)" opacity="1">
			<g opacity="1" transform="matrix(2.5959267616271973,-1.5037167072296143,1.5037167072296143,2.5959267616271973,0,0)">
				<path fill="rgb(238,178,123)" fill-opacity="1" d=" M-2.759999990463257,41.7239990234375 C19.469999313354492,41.7239990234375 42.44499969482422,24.795000076293945 42.44499969482422,2.4719998836517334 C42.44499969482422,-19.85099983215332 19.469999313354492,-41.7239990234375 -2.759999990463257,-41.7239990234375 C-24.989999771118164,-41.7239990234375 -42.44499969482422,-20.000999450683594 -42.44499969482422,2.4719998836517334 C-42.44499969482422,24.94499969482422 -24.989999771118164,41.7239990234375 -2.759999990463257,41.7239990234375z">
				</path>
			</g>
		</g>
		<g style="display: block;" transform="matrix(1.000002384185791,0,0,1.000002384185791,1065.654052734375,325.260986328125)" opacity="1">
			<g opacity="1" transform="matrix(2.5959267616271973,-1.5037167072296143,1.5037167072296143,2.5959267616271973,0,0)">
				<path fill="rgb(255,215,74)" fill-opacity="1" d=" M-2.0309998989105225,30.697999954223633 C14.324000358581543,30.697999954223633 31.229000091552734,18.243000030517578 31.229000091552734,1.819000005722046 C31.229000091552734,-14.604999542236328 14.324000358581543,-30.697999954223633 -2.0309998989105225,-30.697999954223633 C-18.38599967956543,-30.697999954223633 -31.229000091552734,-14.71500015258789 -31.229000091552734,1.819000005722046 C-31.229000091552734,18.35300064086914 -18.38599967956543,30.697999954223633 -2.0309998989105225,30.697999954223633z">
				</path>
			</g>
		</g>
		<g style="display: block;" transform="matrix(1.0000027418136597,0,0,1.0000027418136597,869.8179931640625,225.53500366210938)" opacity="1">
			<g opacity="1" transform="matrix(0.13666433095932007,2.9968855381011963,-2.9968855381011963,0.13666433095932007,0,0)">
				<path fill="rgb(0,233,123)" fill-opacity="1" d=" M-1.406999945640564,21.676000595092773 C9.92199993133545,21.676000595092773 21.631999969482422,12.880999565124512 21.631999969482422,1.284000039100647 C21.631999969482422,-10.312999725341797 9.92199993133545,-21.676000595092773 -1.406999945640564,-21.676000595092773 C-12.736000061035156,-21.676000595092773 -21.631999969482422,-10.390999794006348 -21.631999969482422,1.284000039100647 C-21.631999969482422,12.958999633789062 -12.736000061035156,21.676000595092773 -1.406999945640564,21.676000595092773z">
				</path>
			</g>
		</g>
		<g style="display: block;" transform="matrix(1.0000042915344238,0,0,1.0000042915344238,277.35699462890625,349.5400085449219)" opacity="1">
			<g opacity="1" transform="matrix(2.4669089317321777,-1.7071497440338135,1.7071497440338135,2.4669089317321777,0,0)">
				<path fill="rgb(88,209,189)" fill-opacity="1" d=" M4.818999767303467,5.039999961853027 C-10.38700008392334,17.493999481201172 -31.757999420166016,21.927000045776367 -52.512001037597656,15.805000305175781 C-60.9370002746582,31.214000701904297 -69.36199951171875,45.9900016784668 -77.78700256347656,61.400001525878906 C-51.48500061035156,69.20999908447266 -25.38800048828125,67.30999755859375 -2.1679999828338623,58.444000244140625 C22.07900047302246,49.15700149536133 44.06700134277344,32.90299987792969 58.24599838256836,10.73900032043457 C71.80799865722656,-10.581000328063965 79.20500183105469,-38.02199935913086 77.56199645996094,-66.30799865722656 C61.12300109863281,-61.03099822998047 42.62900161743164,-55.75299835205078 26.190000534057617,-50.6870002746582 C27.628000259399414,-28.523000717163086 20.024999618530273,-7.414000034332275 4.818999767303467,5.039999961853027z">
				</path>
			</g>
		</g>
	</g>
</svg>
