<?xml version="1.0" encoding="utf-8"?>
<!-- Generator: Adobe Illustrator 27.3.1, SVG Export Plug-In . SVG Version: 6.00 Build 0)  -->
<svg version="1.1" id="Layer_1" xmlns="http://www.w3.org/2000/svg" xmlns:xlink="http://www.w3.org/1999/xlink" x="0px" y="0px"
	 viewBox="0 0 178 211" style="enable-background:new 0 0 178 211;" xml:space="preserve">
<style type="text/css">
	.st0{fill:#FFD74A;}
	.st1{fill:#273339;}
	.st2{fill:#FF001A;}
</style>
<path class="st0" d="M154.8,128.1c5.7,0.6,9.5,6.8,8.1,12.7c-8.9,37.8-41.2,65.3-76.3,61.5c-35.1-3.7-62.3-37.1-63.1-76
	c-0.1-6,6-10.7,11.6-10.2C95.1,122,95.1,121.9,154.8,128.1L154.8,128.1z"/>
<path class="st0" d="M27.1,166.2c-7.4-14-11.7-29.1-12.7-44.9c-0.3-3.9-6.2-2.9-6,1.1c1,16.3,5.5,32.1,13.1,46.5
	C23.4,172.2,28.9,169.7,27.1,166.2z"/>
<path class="st1" d="M102.6,116.5c-2.5-9.6-3.6-19.2-3.7-29c0-2.9-4.6-3.5-4.5-0.5c0,10.2,1.1,20.3,3.7,30.3c1.1,4.5,2.7,9,3.2,13.7
	c0.2,3,0.1,6.3-1.1,9.2c-1,3.8-3.1,3.8-6.4,0.1c-0.2-1.2-0.3-2.3-0.4-3.5c-0.3-2.9-4.8-2.3-4.6,0.8c0.5,4.8,2.3,11.1,8.3,11
	c4.8,0,7.3-5.7,8.2-9.8C107,131.1,104.5,123.7,102.6,116.5z"/>
<path class="st1" d="M102.8,179.4c-3.1-2.5-7.5-4.2-0.8-6.5c6.1-2.1,14.1-10,8.8-17c-2-2.6-4.7-2.4-7.3-0.8c-6,3.5-9.9,11.5-18,9.7
	c-2.9-0.7-3.3,3.9-0.5,4.5c3.5,0.7,6.6,0.2,9.8-1.6c1.5-0.9,2.8-1.9,4.1-2.9c1.1-0.9,4.3-5,5.7-5.1c5.4-0.2,1.1,5.9-0.1,7
	c-2.2,1.8-5,1.7-7.4,3c-1.8,0.9-3.7,2.6-4.1,4.7c-0.5,2.1,0.5,4.1,2,5.5c1.5,1.3,3.4,1.9,4.8,3.1c0.8,1,1.6,2,2.4,3
	c1.9,2.7,0.9,4.3-3.1,4.9c-1.3-0.7-2.4-4.3-3.5-5.6c-0.8-0.9-1.6-1.8-2.7-2.5c-2.8-1.9-5.8-2.5-9.2-2.3c-2.9,0.1-2.2,4.7,0.8,4.6
	c8.3-0.3,8.1,8.2,14.2,11.2c2.8,1.3,6,0.8,7.8-1.8c2.2-3,1.5-7.2-0.1-10.2C105.9,182.4,104.4,180.7,102.8,179.4z"/>
<path class="st2" d="M149.6,186.9c0.1,0.1,0.1,0.1,0.2,0.3c0.5,0.3,1.2,0.6,1.7,0.9c0.1,0,0.1,0,0.2,0c0.2,0,0.5,0.1,0.7,0
	c0.7-1.1,1.4-2.1,2.2-3.2c0.1-0.1,0.1-0.2,0.3-0.3c0.7-1.1,1.4-2,2.1-3.1c2.4-3.2,5.3-8.6,2.7-11.7c-0.8-0.9-2-1.3-3.2-1
	c-0.3-0.2-0.7-0.1-1,0s-0.6,0.1-0.9,0.1c-2,0.6-3.2,2.2-4.2,3.9c-3.5-2.6-8.9-4.8-10.8,0.7C137.5,178.6,145.8,184.5,149.6,186.9
	L149.6,186.9z"/>
</svg>
